<mxfile host="Electron" agent="Mozilla/5.0 (Windows NT 10.0; Win64; x64) AppleWebKit/537.36 (KHTML, like Gecko) draw.io/28.1.2 Chrome/138.0.7204.243 Electron/37.4.0 Safari/537.36" version="28.1.2">
  <diagram id="NdxMjVaiDETWjs_X5yrd" name="Seite-1">
    <mxGraphModel dx="1426" dy="841" grid="1" gridSize="10" guides="1" tooltips="1" connect="1" arrows="1" fold="1" page="1" pageScale="1" pageWidth="827" pageHeight="1169" math="0" shadow="0">
      <root>
        <mxCell id="0" />
        <mxCell id="1" parent="0" />
        <mxCell id="rIxoOmbj6urgOE7MlkIt-1" value="Start" style="ellipse;whiteSpace=wrap;html=1;" vertex="1" parent="1">
          <mxGeometry x="240" y="30" width="120" height="80" as="geometry" />
        </mxCell>
        <mxCell id="rIxoOmbj6urgOE7MlkIt-2" value="" style="endArrow=classic;html=1;rounded=0;" edge="1" parent="1" target="rIxoOmbj6urgOE7MlkIt-3">
          <mxGeometry width="50" height="50" relative="1" as="geometry">
            <mxPoint x="299.5" y="90" as="sourcePoint" />
            <mxPoint x="299.5" y="160" as="targetPoint" />
          </mxGeometry>
        </mxCell>
        <mxCell id="rIxoOmbj6urgOE7MlkIt-3" value="print: Hello!" style="rounded=0;whiteSpace=wrap;html=1;" vertex="1" parent="1">
          <mxGeometry x="240" y="130" width="120" height="60" as="geometry" />
        </mxCell>
        <mxCell id="rIxoOmbj6urgOE7MlkIt-4" value="" style="endArrow=classic;html=1;rounded=0;" edge="1" parent="1" target="rIxoOmbj6urgOE7MlkIt-5">
          <mxGeometry width="50" height="50" relative="1" as="geometry">
            <mxPoint x="299.5" y="180" as="sourcePoint" />
            <mxPoint x="299.5" y="240" as="targetPoint" />
          </mxGeometry>
        </mxCell>
        <mxCell id="rIxoOmbj6urgOE7MlkIt-5" value="End" style="ellipse;whiteSpace=wrap;html=1;aspect=fixed;" vertex="1" parent="1">
          <mxGeometry x="259.5" y="200" width="80" height="80" as="geometry" />
        </mxCell>
        <mxCell id="rIxoOmbj6urgOE7MlkIt-6" value="this process shall be written in Python!" style="shape=document;whiteSpace=wrap;html=1;boundedLbl=1;" vertex="1" parent="1">
          <mxGeometry x="50" y="120" width="120" height="80" as="geometry" />
        </mxCell>
        <mxCell id="rIxoOmbj6urgOE7MlkIt-8" value="&lt;b&gt;Pseudo Code&lt;/b&gt;&lt;div&gt;&lt;b&gt;&lt;br&gt;&lt;/b&gt;&lt;/div&gt;&lt;div&gt;-------------------&lt;/div&gt;&lt;div&gt;START&lt;/div&gt;&lt;div&gt;&lt;span style=&quot;white-space: pre;&quot;&gt;&#x9;&lt;/span&gt;PRINT &quot;Hello!&quot;&lt;br&gt;&lt;/div&gt;&lt;div&gt;END&lt;/div&gt;" style="text;html=1;align=center;verticalAlign=middle;resizable=0;points=[];autosize=1;strokeColor=none;fillColor=none;" vertex="1" parent="1">
          <mxGeometry x="440" y="120" width="130" height="100" as="geometry" />
        </mxCell>
      </root>
    </mxGraphModel>
  </diagram>
</mxfile>
